<svg xmlns="http://www.w3.org/2000/svg" xmlns:xlink="http://www.w3.org/1999/xlink" viewBox="0 0 124.65 124.65"><defs><style>.cls-1,.cls-2,.cls-3,.cls-5{stroke:#1d1d1b;stroke-miterlimit:10;}.cls-1{stroke-width:2px;fill:url(#Ikke-navngivet_forløb_30);}.cls-2{fill:url(#Ikke-navngivet_forløb_15);}.cls-3{fill:#fff;}.cls-4{font-size:49.9px;fill:#1d1d1b;font-family:BebasNeue, Bebas Neue;}.cls-5{fill:#e5211c;stroke-width:0.5px;}</style><radialGradient id="Ikke-navngivet_forløb_30" cx="62.33" cy="62.33" r="61.33" gradientTransform="translate(0 -62.33) scale(1 2)" gradientUnits="userSpaceOnUse"><stop offset="0" stop-color="#009fe3"/><stop offset="1" stop-color="#e6332a"/></radialGradient><linearGradient id="Ikke-navngivet_forløb_15" x1="62.33" y1="1" x2="62.33" y2="120.94" gradientUnits="userSpaceOnUse"><stop offset="0" stop-color="#3aaa35"/><stop offset="0.09" stop-color="#46ae32"/><stop offset="0.25" stop-color="#68b929"/><stop offset="0.47" stop-color="#9dcc1a"/><stop offset="0.73" stop-color="#e6e507"/><stop offset="0.81" stop-color="#ffed00"/></linearGradient></defs><g id="Lag_2" data-name="Lag 2"><g id="Lag_2-2" data-name="Lag 2"><rect class="cls-1" x="1" y="1" width="122.65" height="122.65" rx="12"/><rect class="cls-2" x="2.36" y="1" width="119.94" height="119.94" rx="59.97"/><path class="cls-3" d="M62.33,88.26c-33.12,0-60-11.61-60-25.93s26.85-25.94,60-25.94"/><path class="cls-3" d="M62.33,88.26c33.12,0,60-11.61,60-25.93s-26.84-25.94-60-25.94"/><text class="cls-4" transform="translate(23.34 79.87) scale(0.78 1)">Lorem</text><path class="cls-5" d="M122.29,49.62V76.17l-8.52-1.89a237.76,237.76,0,0,0-102.89,0L2.36,76.17V49.62L10,51.07a281.33,281.33,0,0,0,104.61,0Z"/></g></g></svg>