<svg xmlns="http://www.w3.org/2000/svg" viewBox="0 0 149.19 216.59"><defs><style>.cls-1{fill:none;}.cls-1,.cls-2,.cls-3,.cls-5,.cls-6{stroke:#1d1d1b;stroke-miterlimit:10;}.cls-2{fill:#e5e4e4;}.cls-3{fill:#cbbba0;}.cls-4{fill:#fff;}.cls-5{fill:#dedc00;}.cls-6{fill:#f9f9e9;}.cls-7{fill:#1d1d1b;}</style></defs><g id="Lag_2" data-name="Lag 2"><g id="Lag_1-2" data-name="Lag 1"><path class="cls-1" d="M12.69.5h97.23a7.29,7.29,0,0,1,7.29,7.29V210.55a0,0,0,0,1,0,0H6.57a0,0,0,0,1,0,0V6.62A6.12,6.12,0,0,1,12.69.5Z"/><path class="cls-1" d="M115.11,58.08c19.42,0,33.58,21.16,33.58,47.26s-14.16,47.26-33.58,47.26"/><path class="cls-1" d="M117.21,64.36c13.62,0,24.66,18.35,24.66,41s-11,41-24.66,41"/><rect class="cls-2" x="6.57" y="10.87" width="110.46" height="50.77"/><path class="cls-3" d="M117.21,208.28H7.89L6.57,45.72l14.05,5.41A31.52,31.52,0,0,0,42.94,52l14.63-4.88a28.18,28.18,0,0,1,8.88-1.44l11.86,5.36a28.6,28.6,0,0,0,21.3.89l17.6-6.25Z"/><path class="cls-4" d="M113.63,211.72H7.89V49.16L20.2,54.58a29.61,29.61,0,0,0,21.59.9L55.94,50.6a26.47,26.47,0,0,1,8.59-1.44L76,54.52a26.76,26.76,0,0,0,20.61.89l18.92-5.73Z"/><path class="cls-5" d="M115.85,216.09H5.84L7.31,51.74,20,57.21a30.77,30.77,0,0,0,22.16.92L56.63,53.2a27.33,27.33,0,0,1,8.82-1.46l11.77,5.42a27.91,27.91,0,0,0,21.16.9l18.23-6.32Z"/><path class="cls-5" d="M6.61,196H117.5a6.11,6.11,0,0,1,6.11,6.11v10.55a3.42,3.42,0,0,1-3.42,3.42H3.76A3.26,3.26,0,0,1,.5,212.83V202.12A6.11,6.11,0,0,1,6.61,196Z"/><rect class="cls-6" x="6.4" y="0.5" width="110.64" height="13.5" rx="6.75"/><path class="cls-7" d="M25.83,4.24A51.24,51.24,0,0,0,21.9,9.46c-.37.57.33.93.81.95a2.24,2.24,0,0,0,1.91-.82c.56-.86,1.15-1.7,1.76-2.52.3-.4.61-.8.92-1.18a3.25,3.25,0,0,1,.23-.29l.15-.19.05-.06.06-.07.12-.15.27-.32a.76.76,0,0,0,.28-.67.75.75,0,0,0-.58-.45,2.19,2.19,0,0,0-1.08,0,2,2,0,0,0-1,.51Z"/><path class="cls-7" d="M31.65,4.46a49.93,49.93,0,0,0-3.93,5.23c-.37.57.33.93.81.94a2.26,2.26,0,0,0,1.91-.81C31,9,31.59,8.11,32.2,7.29c.3-.4.61-.79.92-1.18.07-.1.15-.19.23-.29l.15-.18s.14-.17,0-.07l.06-.07.12-.14L34,5c.16-.19.35-.41.28-.68a.76.76,0,0,0-.58-.44,2.19,2.19,0,0,0-1.08,0,2,2,0,0,0-1,.5Z"/><path class="cls-7" d="M37.41,4.46a49.93,49.93,0,0,0-3.93,5.23c-.37.57.32.93.81.94a2.26,2.26,0,0,0,1.91-.81C36.76,9,37.34,8.11,38,7.29c.3-.4.6-.79.91-1.18.08-.1.16-.19.23-.29l.15-.18.06-.07.06-.07.12-.14L39.76,5A.78.78,0,0,0,40,4.36a.74.74,0,0,0-.57-.44,2.23,2.23,0,0,0-1.09,0,2,2,0,0,0-1,.5Z"/><path class="cls-7" d="M42.9,4.46A51.37,51.37,0,0,0,39,9.69c-.37.57.33.93.82.94a2.26,2.26,0,0,0,1.9-.81c.56-.86,1.15-1.71,1.76-2.53.3-.4.61-.79.92-1.18.07-.1.15-.19.23-.29l.15-.18s.14-.17,0-.07l.06-.07L45,5.36,45.25,5c.16-.19.35-.41.28-.68A.76.76,0,0,0,45,3.92a2.19,2.19,0,0,0-1.08,0,2.05,2.05,0,0,0-1,.5Z"/><path class="cls-7" d="M49,4.46A51.37,51.37,0,0,0,45,9.69c-.37.57.33.93.82.94a2.26,2.26,0,0,0,1.9-.81c.56-.86,1.15-1.71,1.76-2.53.3-.4.61-.79.92-1.18.07-.1.15-.19.23-.29l.15-.18s.14-.17,0-.07l.06-.07L51,5.36,51.31,5c.16-.19.35-.41.28-.68A.76.76,0,0,0,51,3.92a2.19,2.19,0,0,0-1.08,0,2.05,2.05,0,0,0-1,.5Z"/><path class="cls-7" d="M54.42,4.46a49.93,49.93,0,0,0-3.93,5.23c-.38.57.32.93.81.94a2.23,2.23,0,0,0,1.9-.81C53.76,9,54.35,8.11,55,7.29c.29-.4.6-.79.91-1.18l.23-.29.15-.18.06-.07c-.09.1,0-.05,0-.07l.12-.14L56.77,5A.78.78,0,0,0,57,4.36a.74.74,0,0,0-.57-.44,2.23,2.23,0,0,0-1.09,0,2,2,0,0,0-1,.5Z"/><path class="cls-7" d="M60.05,4.46a49.93,49.93,0,0,0-3.93,5.23c-.37.57.32.93.81.94a2.26,2.26,0,0,0,1.91-.81C59.4,9,60,8.11,60.6,7.29c.3-.4.6-.79.91-1.18l.24-.29.14-.18L62,5.57,62,5.5l.12-.14L62.4,5a.78.78,0,0,0,.27-.68.74.74,0,0,0-.57-.44A2.23,2.23,0,0,0,61,4a2,2,0,0,0-1,.5Z"/><path class="cls-7" d="M66.26,4.13a48.79,48.79,0,0,0-3.93,5.22c-.38.57.32.93.81,1A2.28,2.28,0,0,0,65,9.48c.56-.86,1.15-1.7,1.76-2.52.3-.4.61-.8.92-1.19L68,5.48l.15-.18.06-.07c-.09.11,0-.05,0-.07L68.33,5l.28-.32c.15-.18.34-.41.27-.67a.75.75,0,0,0-.58-.45,2.19,2.19,0,0,0-1.08,0,2,2,0,0,0-1,.51Z"/><path class="cls-7" d="M72.08,4.35a50.88,50.88,0,0,0-3.93,5.22c-.38.58.32.94.81.95a2.24,2.24,0,0,0,1.9-.82C71.42,8.84,72,8,72.62,7.18c.3-.4.61-.79.92-1.18a3.25,3.25,0,0,1,.23-.29l.15-.18s.14-.18.06-.07,0,0,0-.07l.12-.14c.09-.11.18-.22.28-.32s.34-.41.27-.68a.77.77,0,0,0-.58-.45A2.08,2.08,0,0,0,73,3.85a1.94,1.94,0,0,0-1,.5Z"/><path class="cls-7" d="M77.83,4.35A50.88,50.88,0,0,0,73.9,9.57c-.37.58.32.94.81.95a2.24,2.24,0,0,0,1.91-.82c.56-.86,1.14-1.7,1.76-2.52.3-.4.6-.79.91-1.18l.24-.29.14-.18.06-.07.06-.07.12-.14.27-.32c.16-.19.35-.41.27-.68a.75.75,0,0,0-.57-.45,2.13,2.13,0,0,0-1.09.05,1.94,1.94,0,0,0-1,.5Z"/><path class="cls-7" d="M83.33,4.35A50.88,50.88,0,0,0,79.4,9.57c-.38.58.32.94.81.95a2.21,2.21,0,0,0,1.9-.82c.56-.86,1.15-1.7,1.76-2.52.3-.4.61-.79.92-1.18.08-.1.15-.2.23-.29l.15-.18s.14-.18.06-.07,0,0,0-.07l.12-.14c.09-.11.18-.22.28-.32s.34-.41.27-.68a.77.77,0,0,0-.58-.45,2.08,2.08,0,0,0-1.08.05,1.94,1.94,0,0,0-1,.5Z"/><path class="cls-7" d="M89.39,4.35a50.88,50.88,0,0,0-3.93,5.22c-.38.58.32.94.81.95a2.21,2.21,0,0,0,1.9-.82c.56-.86,1.15-1.7,1.76-2.52.3-.4.61-.79.92-1.18.08-.1.15-.2.23-.29l.15-.18s.14-.18.06-.07,0,0,0-.07l.12-.14c.09-.11.18-.22.28-.32s.34-.41.27-.68a.77.77,0,0,0-.58-.45,2.08,2.08,0,0,0-1.08.05,1.94,1.94,0,0,0-1,.5Z"/><path class="cls-7" d="M94.84,4.35a50.88,50.88,0,0,0-3.93,5.22c-.37.58.32.94.81.95a2.24,2.24,0,0,0,1.91-.82c.56-.86,1.14-1.7,1.76-2.52.3-.4.6-.79.91-1.18l.23-.29.15-.18s.14-.18.06-.07l.06-.07.12-.14.27-.32a.78.78,0,0,0,.27-.68.75.75,0,0,0-.57-.45,2.12,2.12,0,0,0-1.09.05,1.94,1.94,0,0,0-1,.5Z"/><path class="cls-7" d="M100.47,4.35a50.88,50.88,0,0,0-3.93,5.22c-.37.58.32.94.81.95a2.24,2.24,0,0,0,1.91-.82c.56-.86,1.15-1.7,1.76-2.52.3-.4.6-.79.91-1.18l.24-.29.14-.18.06-.07.06-.07.12-.14.27-.32c.16-.19.35-.41.27-.68a.74.74,0,0,0-.57-.45,2.13,2.13,0,0,0-1.09.05,1.94,1.94,0,0,0-1,.5Z"/><path class="cls-7" d="M106.12,4.46a49.93,49.93,0,0,0-3.93,5.23c-.37.57.32.93.81.94a2.26,2.26,0,0,0,1.91-.81c.56-.86,1.14-1.71,1.76-2.53.3-.4.6-.79.91-1.18l.24-.29.14-.18.06-.07.06-.07.12-.14.27-.32c.16-.19.35-.41.27-.68a.74.74,0,0,0-.57-.44,2.23,2.23,0,0,0-1.09,0,2,2,0,0,0-1,.5Z"/><path class="cls-7" d="M111.75,4.46a49.93,49.93,0,0,0-3.93,5.23c-.37.57.32.93.81.94a2.26,2.26,0,0,0,1.91-.81c.56-.86,1.15-1.71,1.76-2.53.3-.4.6-.79.91-1.18l.24-.29.15-.18s.14-.17.05-.07l.06-.07.12-.14L114.1,5c.16-.19.35-.41.28-.68a.76.76,0,0,0-.58-.44,2.24,2.24,0,0,0-1.09,0,2,2,0,0,0-1,.5Z"/><path class="cls-7" d="M14.46,4.13a48.79,48.79,0,0,0-3.93,5.22c-.38.57.32.93.81,1a2.28,2.28,0,0,0,1.9-.82C13.8,8.62,14.39,7.78,15,7c.3-.4.61-.8.92-1.19l.23-.29.15-.18.06-.07c-.09.11,0-.05.05-.07L16.53,5l.28-.32c.15-.18.34-.41.27-.67a.75.75,0,0,0-.58-.45,2.19,2.19,0,0,0-1.08,0,2,2,0,0,0-1,.51Z"/><path class="cls-7" d="M20.09,4.13a48.79,48.79,0,0,0-3.93,5.22c-.38.57.32.93.81,1a2.27,2.27,0,0,0,1.9-.82C19.44,8.62,20,7.78,20.64,7c.29-.4.6-.8.91-1.19a3.25,3.25,0,0,0,.23-.29l.15-.18L22,5.23l.06-.07L22.17,5l.27-.32A.76.76,0,0,0,22.71,4a.73.73,0,0,0-.57-.45,2.23,2.23,0,0,0-1.09,0,2,2,0,0,0-1,.51Z"/><path class="cls-2" d="M127,150.31,119,153.38c-2.51-.5-3.33-2.17-2.87-7.06.26-2.76,4.82,7.74,20.85-16.56l3.68-12.9a71.54,71.54,0,0,0,.89-17.78c0-.25-.2-1.92-.24-2.17l-2.71-12.17c-.46-.91-.94-2.21-1.36-3.21l-6.83-10.86c-.27-.47,0,0-1.18-1l-6-4-6.05-1.24c0-9.64-.6-4.65-.42-6.45l10.4,3a2,2,0,0,1,.78.38c3,2.28,9.58,7.14,11,10.3,2.83,6.29,9.72,20.36,9.72,26.9v14.35c-.26,2.59-3.55,15.07-4.85,17.33-2.19,3.76-2.68,5.6-3.46,6.73C133.76,146.55,135.6,143.4,127,150.31Z"/></g></g></svg>