<svg xmlns="http://www.w3.org/2000/svg" viewBox="0 0 181.12 164.4"><defs><style>.cls-1{fill:#f08300;}.cls-2{fill:#38170d;}.cls-3{fill:#e31013;}.cls-4{fill:#fffffe;}.cls-5{fill:#fff;}.cls-6{fill:#f5f3fa;}.cls-7{fill:#b34d17;}</style></defs><g id="Lag_2" data-name="Lag 2"><g id="Lag_2-2" data-name="Lag 2"><g id="Lag_4" data-name="Lag 4"><path class="cls-1" d="M138,37.82c-.05,5.94-8,7.49-28.16,6.86-3.15-.1-7.91-9.24-10.79-10.27-4.3-1.55-7.13-1.3-10.56-1.37-3.19-.06-1.79,9.84-3.15,10.87-3.64,2.74-7.31-1.21-8.89-2.29C75.56,41.05,72,28.5,72,27.05c.26-8.24,9.7-5.92,29.87-5.29S138,26.9,138,37.82Z"/><path class="cls-2" d="M106.71,28.44c0,1.53-.65,2.06-2.49,2s-3.29-.65-3.24-2.18a3.1,3.1,0,0,1,3.43-2.66C106.26,25.65,106.76,26.91,106.71,28.44Z"/><path class="cls-3" d="M96.68,17.92c-.14,4.17-28.4,2.91-43.56,7.68-3.42,1.08-8-3.13-12.89-6-6.48-3.76-15.3-1.63-19-7.75C16.76,4.48,37.24-.61,58.47.06S96.81,13.74,96.68,17.92Z"/><path class="cls-4" d="M115.58,57.69c3.93,2.7,27.13,33,4.27,32.31-6.49-.2-23.86-5.76-33.21-14.12-7.39-6.62-11.18-16.52-11.8-16.83-10.32-5.07-22.38-.83-26.91-6C42.76,47.18,46,41.94,46.12,37.72c.17-5.31,15.45-18.52,24.66-15.27,3.07,1.09-.27,10.75,3,15.41,1.38,2,3.51,6.51,5.66,6.9,2.9.53,1.71,1.71,5.9-.85,2.21-1.36.64-11.62,3.15-10.87,3.58,1.08,7.22.17,10.56,1.37,4,1.44,7.54,8.86,10.79,10.27,10.26,4.44,7.62,5.72,7.92,8.48S112.24,55.39,115.58,57.69Z"/><path class="cls-3" d="M133.14,121.48c36.84,8.8,9.76,37.81-1.88,37.44S98.78,144.16,77,134.59c-14.57-6.41-40.56-21.19-40.24-31.21C37.42,83.32,44.6,58.19,47,55.17c0,0,11.37-.88,19,1.42C80.61,61,94.31,93,119.85,90c4.23-.49,16.61-4.52,19.88-4.42,0,0,12,7.71,13.32,12.3C154.18,101.71,130.42,120.83,133.14,121.48Z"/><path class="cls-5" d="M170.91,79.88c-.25,7.77-9.78,15.27-16.46,15.06s-14.37-6.75-14.12-14.52c.07-2.25,3.32-9,7.83-10.33,1.23-.36,6.43.77,7.39.8C162.23,71.1,171.15,72.11,170.91,79.88Z"/><ellipse class="cls-6" cx="11.2" cy="12.42" rx="10.23" ry="11.2" transform="matrix(0.03, -1, 1, 0.03, -1.57, 23.23)"/><path class="cls-7" d="M180.68,137.4c2.51,4.36-6.36,19.76-11.8,24.56-5.62,4.95-30.41,1.54-32.78-2.89s8.87-10.45,15.47-14c.57-.31.27-13.43,1.27-13.42,2.25,0,7.58,1.77,10.11,1.31,1.45-.26,1.57,11,2.45,9.79C170.58,135.73,178.22,133.14,180.68,137.4Z"/></g></g></g></svg>